<?xml version="1.0" encoding="UTF-8"?>
<svg width="478px" height="368px" viewBox="0 0 478 368" version="1.1" xmlns="http://www.w3.org/2000/svg" xmlns:xlink="http://www.w3.org/1999/xlink">
    <!-- Generator: Sketch 55.2 (78181) - https://sketchapp.com -->
    <title>noun-coffee-beans-1519514</title>
    <desc>Created with Sketch.</desc>
    <g id="Page-1" stroke="none" stroke-width="1" fill="none" fill-rule="evenodd">
        <g id="noun-coffee-beans-1519514" transform="translate(242.000000, 190.000000) rotate(49.000000) translate(-242.000000, -190.000000) translate(-24.000000, 73.000000)" fill="#FFFFFF" fill-rule="nonzero">
            <path d="M94.2,227.16 C98.1219,226.60141 101.4812,225.4803 104.841,224.9217 C106.5207,224.36311 108.2004,223.8006 109.3215,223.242 C110.4426,222.68341 111.5598,222.68341 111.0012,221.0037 C110.44261,219.8826 109.3215,219.8826 108.2004,219.8826 C104.2785,221.0037 100.9192,222.1209 97.0014,222.6834 C86.9234,225.4842 77.3994,228.285 66.7634,228.8436 C63.404,228.8436 60.6032,228.8436 57.2439,227.7225 C53.8845,226.6014 51.0837,226.0428 47.7244,227.7225 C46.6033,228.28109 45.4861,227.16391 44.365,226.6014 C42.1267,224.9217 39.8845,224.3631 37.0838,225.4803 C34.283,226.6014 30.9236,226.03889 28.6854,223.8006 C27.5643,222.6795 26.4471,222.6795 24.7635,222.6795 C25.8846,226.0389 28.1229,228.2811 30.9237,229.9607 C32.0448,231.0818 33.162,231.6404 33.7245,232.7615 C33.7245,233.32009 33.7245,233.32009 33.16591,233.32009 C31.48621,233.32009 30.36511,232.19899 29.24401,231.08179 C25.32211,227.72239 22.52521,223.80059 18.60301,220.44079 C16.36471,218.20249 13.00141,217.08139 11.32181,214.28059 C7.39991,207.56179 3.48201,200.83959 1.80231,192.44059 C1.24372,190.20229 -0.43599,188.51869 0.12261,186.28039 C1.23981,181.23739 1.80231,176.19839 1.80231,171.15939 C1.80231,168.35859 1.80231,165.55779 2.92341,162.76099 C4.04451,159.96019 3.482,157.15939 4.04451,154.36259 C4.6031,151.56179 5.16561,148.76099 6.28281,146.52279 C7.96251,142.60089 9.08361,138.12439 10.20471,133.64379 C11.32581,129.72189 13.00551,126.36259 15.80631,123.00279 C17.48211,121.87779 17.48211,120.19809 18.60321,119.07699 C20.84151,114.59649 24.76341,111.23719 27.00161,106.75699 C29.23991,101.71789 32.60321,96.67899 35.96251,92.19799 C38.20081,89.39719 40.44301,86.59639 43.24371,84.91679 C45.48201,83.23709 47.16561,80.43629 49.40391,78.19799 C60.04491,66.43599 71.80191,56.91699 84.68491,47.95999 C91.40371,43.47949 98.12591,38.44049 105.40391,33.95999 C108.20471,32.28029 111.56411,30.60059 114.92341,28.92089 C115.482,28.3623 116.60311,28.3623 117.16171,28.92089 C119.40001,30.04199 121.64221,28.92089 123.88051,27.79979 C130.04071,24.99899 136.75951,22.19819 143.48251,20.51859 C146.28331,19.96 149.08411,18.28029 151.88091,17.15919 C160.27931,13.79979 168.68191,12.67869 177.07991,10.44039 C178.20101,10.44039 178.75961,10.44039 179.88071,10.99898 C181.56041,12.67868 183.80261,12.12008 185.48231,11.55757 C191.08391,10.99898 196.68131,11.55757 202.28331,12.11616 C203.40441,12.11616 205.08411,12.11616 205.08411,14.35446 C205.08411,15.47556 206.20521,14.91305 206.76381,15.47556 C209.00211,16.03415 210.68571,17.15526 211.80291,19.39746 C212.3615,20.51856 212.92401,20.51856 214.60371,20.51856 C217.40451,20.51856 219.08421,22.19826 218.52561,24.99906 C217.96702,28.35846 217.40451,32.28026 216.28731,35.64006 C215.72872,38.44086 216.8459,39.56196 219.64671,39.56196 C223.56861,39.56196 225.24831,36.76116 228.04511,35.08146 C230.28341,33.40176 231.96701,31.15956 234.76391,31.15956 C236.44361,31.15956 238.12331,31.71815 238.68581,32.83926 C240.36551,35.07756 242.04521,36.19866 244.84601,35.64006 C247.08431,35.64006 248.20541,36.76116 248.76791,38.99946 C248.76791,40.67916 249.3265,41.23776 249.88901,42.92136 C252.68981,49.08156 254.36951,55.24136 252.12731,61.40136 C251.56872,62.52246 251.56872,64.20216 252.12731,65.32326 C253.24841,67.00296 253.24841,68.68266 252.6859,70.92486 C251.5648,75.40536 251.0062,79.88576 251.0062,84.36586 C251.0062,87.16666 248.7679,89.40496 248.2054,92.20566 C247.64681,94.44396 246.5257,96.68616 246.5257,99.48686 C245.96711,104.52596 242.6038,109.00636 240.3655,112.92786 C239.80691,114.04896 238.6858,115.72866 238.1272,116.84976 C236.4475,120.77166 234.2053,124.13096 231.967,127.49076 C231.40841,128.04935 231.40841,128.61186 231.40841,129.72906 C230.84982,131.96736 229.72871,134.20956 226.92791,134.76816 C224.68961,135.32675 223.56851,137.56896 223.00601,139.24866 C219.08411,145.40886 214.60761,150.44766 210.68601,156.04966 C209.00631,158.85046 206.20551,160.53016 205.64691,163.88946 C205.64691,164.44805 204.52581,165.01056 203.96721,165.01056 C200.04531,167.81136 196.12741,171.17076 192.20521,173.97146 C189.96691,175.65116 188.28331,177.89336 186.60361,179.57306 C181.00201,185.15896 175.40061,189.63906 169.80261,194.12006 C165.32211,197.47946 160.84171,200.83886 155.80261,203.63956 C153.00181,205.31926 150.20101,207.56146 147.40421,209.79976 C145.16591,211.47946 142.92371,212.60056 140.68541,213.72166 C137.32601,215.40136 134.52521,217.08106 130.60741,218.76076 C130.04882,218.76076 129.48631,219.31935 128.92771,219.31935 C125.56831,218.19825 123.32611,219.31935 120.52931,220.99905 C117.72851,222.67875 114.36911,223.23735 111.56841,224.35845 C107.08791,226.03815 102.60751,227.71785 98.12741,228.28035 C97.561,227.71785 95.88131,228.28035 94.20161,227.15925 L94.2,227.16 Z M115.481,153.801 C108.7622,152.1213 102.04,153.801 95.321,153.801 C94.76241,152.6799 96.4421,152.1213 94.76241,151.5627 C93.64131,151.00411 93.08271,150.4416 91.96161,149.883 C89.72331,148.7619 86.92251,148.2033 85.24281,149.883 C81.88341,152.6838 78.52401,155.4846 75.72331,158.8439 C75.16472,159.40249 74.60221,159.965 75.16472,161.0822 C75.72331,161.64079 76.28582,162.7619 77.40302,162.7619 C79.64132,162.20331 82.44212,162.7619 84.68422,162.7619 C87.48502,162.7619 89.72332,162.7619 92.52402,164.4416 C89.16462,165.00019 85.80522,164.4416 83.00452,163.88301 L81.88342,163.88301 C81.32483,164.4416 81.88342,164.4416 81.88342,165.00411 C83.56312,167.24241 85.24282,168.92601 87.48502,170.04321 C88.60612,170.6018 90.28582,171.16431 91.40692,171.72291 C94.20772,172.84401 96.44602,174.52371 97.56712,177.32451 C98.12571,177.8831 98.12571,178.44561 97.56712,179.00421 C97.00853,179.56281 96.44602,179.00421 95.88742,179.00421 C92.52022,173.39871 85.80142,172.84011 80.19942,170.60191 C79.64083,170.04332 78.51972,170.60191 77.96112,171.1605 C76.28142,171.71909 75.16032,171.71909 74.60172,170.0394 C74.04313,168.9183 72.92202,168.9183 71.80092,168.3597 C66.76182,167.2386 62.28142,167.2386 57.80092,170.598 C55.56262,172.2777 52.19932,172.8363 49.96112,175.0785 C49.40253,175.63709 48.84002,175.63709 49.40253,176.1996 C49.40253,176.75819 49.96112,176.75819 51.08223,176.75819 C52.20333,176.75819 53.88303,176.1996 55.00413,176.75819 C52.20333,176.75819 49.96503,178.43789 47.16433,178.99649 C43.80493,179.55508 42.12523,182.35589 43.24243,184.59809 C43.80102,185.71919 46.04323,186.27779 47.16433,187.39889 C50.52373,189.63719 53.32453,192.43799 57.24233,193.00049 C62.28143,194.12159 67.32033,194.68019 72.36333,194.68019 C79.08213,195.23878 85.80433,194.1216 91.96533,192.44189 C98.68413,190.20359 104.84433,186.84029 112.12533,185.72309 C118.28553,184.60199 123.88733,182.36369 129.48433,179.00429 C135.64453,175.64489 141.24633,171.72309 146.84333,167.80529 C153.56213,163.88339 160.28433,158.84439 167.00333,154.36429 C172.04243,151.00489 177.08133,147.08309 181.56233,142.60229 C185.48423,138.68039 189.96073,134.76249 193.88233,130.84029 C198.36283,125.80119 203.96033,121.87939 208.44133,116.84029 C209.56243,115.71919 211.24213,115.16059 211.80073,113.48089 C212.35932,110.68009 213.48043,108.44179 215.16013,106.19969 C215.16013,106.19969 215.71872,105.6411 215.16013,105.07859 C213.48043,103.95749 215.16013,102.84029 215.71872,102.27779 C216.27731,101.15669 216.83982,100.59809 217.39842,99.47699 C217.95701,98.35589 218.51952,97.23869 220.19922,97.23869 C220.19922,97.79728 220.19922,97.79728 219.64063,98.35979 C218.51953,98.35979 218.51953,99.48089 219.08204,100.03949 C219.64063,101.16059 220.20314,100.03949 220.76174,99.4809 C222.44144,97.8012 222.44144,97.8012 221.32033,95.559 C220.76174,95.00041 221.32033,94.4379 221.87892,94.4379 C223.55862,94.4379 224.11722,92.7582 224.11722,91.6371 C224.11722,90.516 224.67581,89.9574 225.23832,89.9574 C226.35942,89.9574 227.47662,88.8363 228.03912,87.7191 C231.39852,83.2386 231.96102,78.1996 233.64072,73.1601 C235.32042,66.9999 235.87902,60.8401 235.87902,54.1211 L235.87902,50.1992 C235.87902,49.64061 235.87902,49.0781 235.32043,49.0781 C234.76184,49.0781 234.76184,49.63669 234.76184,50.1992 C234.76184,51.3203 233.64074,51.8789 233.08214,53 C232.52355,51.8789 232.52355,50.7617 233.08214,50.1992 C233.64073,48.5195 232.52355,45.7187 235.88294,45.7187 C236.44153,45.7187 236.44153,45.16011 236.44153,45.16011 C235.88294,44.03901 232.51963,43.48041 231.40243,44.03901 C226.92193,49.64061 221.88293,55.23801 216.28143,59.71901 C215.16033,60.84011 214.04313,61.95731 212.35953,63.07841 C207.87903,65.31671 203.96113,69.23861 199.48053,70.91821 C198.35943,71.4768 197.80083,72.03931 199.48053,73.15651 C200.60163,73.7151 201.71883,74.83621 202.28133,75.95731 C202.83992,76.5159 202.83992,77.07841 202.28133,77.63701 C201.72274,78.1956 201.16023,78.1956 200.60163,78.1956 C199.48053,77.63701 197.80083,77.0745 196.67973,76.5159 C193.87893,75.3948 190.51953,74.8362 187.71883,78.1956 C186.59773,79.3167 185.48053,79.8753 183.79693,80.9964 C179.87503,83.2347 175.95713,86.0355 172.03493,88.8362 C171.47634,89.39479 171.47634,89.9573 172.03493,90.5159 C173.71463,92.1956 175.39433,92.7542 177.63653,91.637 C180.43733,90.5159 184.35533,91.07841 185.47633,92.7581 C183.79663,93.31669 182.11693,92.7581 180.43723,92.7581 C178.75753,92.7581 177.63643,93.31669 177.63643,94.4378 C177.07784,95.5589 178.19502,96.1175 179.31613,96.6761 C180.43723,97.23469 181.55443,97.7972 182.67553,98.3558 C183.23412,98.91439 184.35523,98.91439 184.35523,100.0355 C184.35523,101.15661 183.23413,100.59409 182.67553,101.1566 C178.75363,101.71519 175.39433,100.0355 172.59753,97.7972 C166.99593,94.4378 163.07803,94.4378 158.59753,99.4769 C154.67563,103.9574 149.07803,106.1957 144.59753,110.1179 C141.23813,112.9187 136.19913,113.4773 132.27753,115.7195 C131.71894,116.27809 131.15643,116.27809 131.15643,116.8406 C131.15643,117.9617 131.71502,117.9617 132.27753,118.5203 C134.51583,120.2 137.31663,120.2 139.55873,121.3211 C140.11732,121.87969 141.23843,121.87969 140.67983,122.4422 C140.67983,123.00079 139.55873,123.5633 139.00013,123.00079 C137.87903,122.4422 136.76183,123.00079 136.19933,123.55938 C135.64074,125.79768 133.96103,125.23908 132.83993,124.68048 C129.48053,123.55938 126.12113,124.12189 122.76193,122.44218 C121.64083,121.88359 120.52363,121.88359 119.40253,122.44218 C116.04313,124.68048 112.68373,126.36408 109.32453,128.60238 C108.20343,129.72348 105.96513,129.72348 105.40263,131.40318 C104.28153,133.64148 104.28153,133.64148 102.04323,133.08288 C102.04323,133.08288 101.48464,133.08288 101.48464,133.64147 C100.36354,134.20006 99.24634,134.76257 98.12524,135.32117 C97.56665,135.32117 97.00414,135.87976 97.00414,136.44227 C97.00414,137.00086 97.56273,137.56337 98.12524,137.56337 C100.92604,137.00478 102.60574,139.24307 104.84404,139.24307 C107.64484,139.24307 111.00424,139.80166 113.80494,139.80166 C118.28544,139.80166 122.76584,140.36025 127.24594,142.60246 C121.64434,142.60246 116.60494,142.04387 111.56594,140.92276 C108.20654,140.36417 104.28474,140.36417 100.92494,141.48135 C99.80384,142.03994 98.68664,142.03994 99.80384,143.71965 C100.36243,144.27824 100.36243,145.39935 100.36243,146.52045 C99.80384,147.64155 98.68273,147.64155 98.12413,147.07904 L96.44443,147.07904 C99.80383,149.31734 102.60463,151.55954 105.40533,153.23924 C108.20613,153.23924 111.56553,153.79783 114.36623,153.79783 C113.23733,152.68063 114.92092,152.68063 115.47953,153.801736 L115.481,153.801 Z M102.602,72.039 C106.5239,70.3593 109.3208,72.039 111.5629,73.7187 C117.1645,77.0781 122.7619,79.8789 128.9219,82.6796 C132.2813,83.8007 135.6407,84.9179 138.9999,82.6796 C141.2382,80.9999 144.039,79.8788 146.2811,78.1991 C149.6405,75.9608 153.5623,74.2772 154.1209,69.8007 L154.67949,69.24211 C158.03889,67.56241 159.15999,64.76161 161.39829,61.96091 C164.19909,58.60151 164.19909,58.60151 161.39829,56.35931 C160.8397,55.80072 160.27719,55.23821 160.27719,54.67961 C160.27719,53.55851 161.39829,53.55851 161.95689,53.55851 C163.07799,53.55851 164.19519,53.55851 165.31629,54.1171 C169.23819,54.67569 172.59749,55.2382 176.51529,54.67569 C177.07388,54.67569 178.19499,54.1171 178.19499,53.55459 C177.6364,51.31629 179.31609,51.87489 180.43329,51.31629 C182.11299,50.7577 183.79269,50.19519 185.47239,50.19519 C188.83179,50.19519 190.51149,47.95689 192.19119,45.71469 C192.74978,44.59359 192.74978,43.47639 191.6326,42.91389 C189.9529,42.3553 188.2732,41.23419 186.031,40.11309 C185.47241,39.5545 184.3513,39.5545 184.3513,38.43339 C184.3513,37.31228 185.4724,37.31229 186.031,37.31229 C187.7107,36.7537 189.3904,36.7537 190.5115,37.31229 C192.7498,37.87088 194.992,38.99199 197.7927,39.55059 C200.5935,40.67169 202.8318,38.42949 202.8318,35.62869 C202.8318,34.50759 202.8318,33.94899 203.9529,33.39039 C205.074,32.26929 205.074,31.71069 203.9529,30.58959 C203.39431,30.031 202.8318,29.46849 202.2732,28.90989 C201.1521,26.10909 200.0349,25.55049 196.6716,25.55049 C192.1911,25.55049 187.7107,25.55049 183.2306,24.42939 C180.9923,23.8708 178.7501,23.8708 176.5118,24.42939 C173.1524,24.98798 169.793,24.98798 166.4338,25.55049 C158.594,26.10908 151.3128,27.78879 144.0358,30.03099 C140.6764,31.15209 137.8756,32.26929 134.5163,33.39039 C128.9147,35.07009 123.3173,37.31229 117.7153,39.55059 C116.0356,40.10918 115.477,41.78889 113.7934,42.35139 C107.6332,44.58969 102.0314,47.95299 96.9924,51.31229 C91.3908,54.67169 85.7934,58.03109 80.7544,61.95329 C79.6333,63.07439 78.5161,64.19159 77.395,64.75409 C74.0356,66.99239 70.6762,68.67599 68.4341,72.59389 C67.87551,73.71499 67.313,74.27359 66.1958,74.27359 C65.63721,74.83218 64.5161,74.83218 63.9575,75.95329 C56.6763,84.91419 48.2775,92.75429 41.5595,102.27329 C37.6376,107.87489 33.1611,113.47229 29.7975,119.63229 C26.4381,124.67139 24.1959,129.71029 21.3991,134.75329 C20.84051,135.87439 20.84051,137.55409 20.84051,138.67519 C21.3991,142.59709 22.52021,147.07359 20.28192,150.99519 C18.60222,154.35459 21.96162,158.83499 25.32102,158.83499 C27.55932,158.83499 30.36012,158.2764 32.03982,156.59669 C34.28202,154.35839 35.39922,153.79979 37.07892,153.79979 C38.75862,153.2412 39.87972,152.67869 41.00082,152.12009 C41.55941,151.5615 42.12192,150.99899 42.12192,150.44039 C42.12192,149.31929 41.00082,149.31929 39.88362,149.31929 C40.44221,149.31929 40.44221,149.31929 40.44221,148.7607 C42.12191,145.9599 44.92271,144.8388 48.28201,144.2802 C53.32111,143.1591 53.32111,142.6005 52.20391,137.5614 L52.7625,137.00281 C53.8836,139.80361 55.5633,141.48331 58.3641,139.80361 C60.0438,138.68251 61.7235,138.12391 63.4032,137.00281 C65.0829,135.88171 65.0829,134.76451 63.4032,133.64341 C63.399294,132.51841 63.399294,131.39731 62.8407,130.28011 C61.7196,128.60041 62.28211,127.47931 63.9618,127.47931 C66.7626,126.92072 66.7626,124.67851 66.2001,122.44021 C65.64151,120.20191 65.079,118.51831 64.5204,116.28001 C64.5204,115.72142 63.96181,115.72142 64.5204,115.15891 C65.07899,115.15891 65.07899,115.15891 65.07899,115.7175 C65.07899,119.0769 68.43839,121.8777 67.87979,125.7955 C67.87979,126.9166 68.43838,128.0338 69.55949,128.0338 C72.91889,128.59239 76.27829,129.1549 78.52039,126.9127 C81.32119,124.6744 83.55949,121.8736 86.36019,119.6315 C88.59849,117.3932 88.03989,115.7096 85.8016,114.0299 C81.8797,111.7916 79.0828,108.9908 75.7236,105.6315 C74.0439,103.9518 72.3642,102.2721 70.6845,100.0299 L71.24309,99.47131 C72.92279,101.15101 74.60249,102.27211 76.28219,103.95181 C77.40329,104.5104 77.96189,105.63151 79.08299,105.63151 C83.00489,105.63151 86.36419,107.31121 89.16099,110.11201 C90.28209,111.23311 91.96179,112.35031 93.64149,111.79171 C95.87979,110.67061 97.56339,109.55341 99.24309,107.86981 C103.16499,103.38931 108.20399,99.47141 113.24309,96.10781 C114.92279,94.98671 116.04389,93.86951 114.92279,91.62731 C113.80169,89.38901 116.04389,87.14681 117.72359,87.14681 C118.84469,87.14681 120.52439,87.7054 120.52439,86.02571 C120.52439,84.90461 119.9658,83.78741 118.84469,83.22491 C113.80169,80.99831 109.87989,74.27961 102.60269,72.03691 L102.602,72.039 Z M116.602,198.039 C114.9223,199.1601 113.2426,198.59759 112.1215,199.7187 C111.56291,200.27729 111.0004,200.27729 111.56291,200.8398 C111.56291,201.39839 112.1215,201.39839 112.68401,201.39839 C115.48481,200.8398 118.84421,199.71869 121.64491,199.71869 C125.00431,199.71869 127.80511,199.1601 130.60581,197.48039 C131.72691,196.9218 132.84411,196.9218 133.96521,196.9218 C136.76601,196.9218 139.00431,198.0429 141.24641,196.9218 C146.84801,195.2421 152.44541,192.9999 156.36741,188.5234 C157.48851,187.4023 158.60571,185.7226 160.28931,184.6015 C161.96901,183.4804 162.52761,182.3632 160.8479,180.121 C160.28931,178.9999 160.28931,178.4413 161.40649,178.4413 C162.52759,178.4413 163.64479,177.88271 164.76589,177.88271 C167.56669,177.88271 169.24639,176.76161 170.36749,174.52331 C171.48859,172.84361 172.60579,172.28501 173.72689,171.16391 C177.64879,167.80451 181.56669,165.00371 184.92589,161.08591 C186.60559,158.84761 188.84779,156.04681 191.08609,153.80471 C192.20719,152.68361 193.88689,151.56641 194.44549,149.32421 C195.00408,146.52341 196.12519,144.28511 198.36739,142.60541 C198.92598,142.04682 199.48849,137.00381 198.92598,137.00381 L197.80488,137.00381 C195.56658,138.12491 192.20328,139.24211 191.08608,142.04291 C189.96498,144.84371 187.16418,146.52341 184.92588,147.64451 C184.36729,148.2031 183.80478,148.2031 183.24618,148.76561 C180.44538,151.56641 177.08598,154.36721 174.28528,157.16401 C172.60558,158.84371 170.36338,158.84371 168.68368,160.52341 C165.88288,162.76171 163.08208,165.56251 159.72278,167.24221 C158.60168,167.8008 156.92198,169.48051 157.48448,170.04301 C158.60558,171.72271 157.48448,172.84381 156.36338,173.40241 C154.12508,175.08211 152.44148,176.76181 150.20318,177.88291 C144.04298,180.68371 137.88318,182.92201 132.28118,187.40241 C130.60148,189.08211 128.35928,189.08211 126.12098,188.52351 C124.44128,187.96492 122.76158,187.96492 121.64048,188.52351 C115.48028,190.76181 109.32048,192.44541 103.16048,194.68371 C102.03938,195.2423 100.35968,195.2423 99.80108,196.92201 C106.51988,195.23841 111.55908,195.80091 116.60208,198.03921 L116.602,198.039 Z M46.04,202.5195 C48.8408,202.5195 48.8408,202.5195 51.6416,200.2812 C52.7627,199.1601 52.7627,198.0429 51.6416,197.4804 C48.8408,195.8007 46.04,193.5585 42.6807,193.5585 C41.001,193.5585 39.3213,192.4374 38.2002,190.7577 C37.64161,189.6366 37.0791,189.078 35.9619,189.078 C33.7236,187.9569 33.1611,188.51941 32.6025,190.7577 C32.04391,192.4374 31.4814,194.6796 30.3642,195.7968 C26.4423,199.1562 22.5244,201.3984 16.9232,198.5976 C16.36461,198.03901 14.6849,197.4765 14.1224,198.5976 C13.56381,199.7187 14.68099,200.8359 15.2435,201.3984 C18.6029,203.6406 21.9623,204.1992 25.3215,202.5195 C27.5598,201.3984 29.802,201.3984 32.6027,201.3984 C37.0793,201.9609 41.5597,202.5195 46.0407,202.5195 L46.04,202.5195 Z M56.122,217.6405 C61.7236,219.3202 66.763,218.7616 72.36,217.08191 C73.4811,216.52332 75.1608,216.52332 74.5983,218.76161 C74.5983,219.3202 74.5983,219.88271 75.15689,219.88271 C80.19599,220.4413 84.67639,220.4413 89.15689,217.64441 C90.83659,216.52331 91.95769,215.40611 94.75849,215.40611 C98.68039,215.40611 103.15689,214.84752 107.07849,213.16781 C108.75819,212.60922 110.43789,211.48811 111.55899,209.80841 C112.11758,208.68731 112.11758,208.12871 111.0004,208.12871 C108.1996,209.24981 105.3988,208.6873 102.602,209.80841 C100.3637,210.92951 98.1215,212.60921 95.8832,213.73031 C95.32461,213.73031 94.2035,214.85141 94.2035,213.73031 C94.2035,212.05061 93.0824,212.05061 91.9652,212.60921 C90.8441,212.60921 89.7269,213.1678 88.6058,213.73031 C86.9261,214.2889 85.2464,215.41001 83.5667,214.85141 C81.887,214.29282 80.2073,214.29282 78.5276,215.41 C77.96901,215.41 76.8479,215.96859 76.8479,214.85141 C76.8479,212.05061 75.1682,213.73031 74.0471,213.73031 C70.6877,214.2889 68.4455,217.08971 64.5276,214.85141 C61.719,215.39829 58.3596,215.39829 56.1214,217.64051 L56.122,217.6405 Z M47.1611,158.8395 C48.8408,158.8395 49.9619,158.28091 50.5205,156.6012 C50.5205,155.4801 51.07909,154.3629 52.2002,155.4801 C53.8799,157.1598 56.6807,156.6012 57.2393,153.8004 C57.79789,151.5621 58.3604,150.441 60.5987,152.6793 L62.2784,152.6793 C63.9581,152.6793 65.6378,151.5582 66.7589,150.9996 C71.2394,148.1988 75.1573,144.8394 75.7198,139.2376 C75.7198,138.1165 76.27839,137.5579 77.3995,136.9993 C78.5206,136.44071 79.6378,135.3196 80.2003,134.1985 C80.75889,133.63991 80.75889,132.5188 80.2003,131.9602 C79.64171,131.40161 78.5206,131.9602 77.962,132.51879 C76.8409,133.63989 76.2823,134.75709 75.1612,135.87819 C73.4815,137.55789 73.4815,140.35869 71.2393,141.47979 C70.68071,140.9212 70.68071,139.80009 70.1182,138.67899 C68.4385,140.35869 67.3174,142.60089 65.6377,144.28059 C65.07911,141.47979 63.958,140.92119 62.8369,142.60089 C61.1572,144.83919 58.915,146.52279 56.1181,147.63999 C54.4384,148.19858 53.8798,150.44079 54.997,152.12049 C55.55559,152.67908 56.6767,152.67908 56.1181,153.24159 C55.55951,153.80018 54.4384,153.80018 53.3173,153.80018 C52.75871,153.80018 52.1962,153.24159 52.1962,152.67908 C51.63761,150.44078 49.3954,149.87828 47.7157,151.55798 C46.5946,152.67908 46.036,154.35878 46.5946,154.91738 C48.2821,156.60098 47.16101,157.71818 47.16101,158.8395 L47.1611,158.8395 Z M88.6021,207.5585 C93.0826,207.5585 98.1216,206.4374 102.6021,204.7577 C104.2818,204.19911 106.524,203.6366 108.2037,201.9569 C108.76229,201.39831 109.3248,201.39831 108.76229,200.2772 C108.2037,199.71861 107.64119,199.71861 107.08259,199.71861 C102.04349,200.83971 97.00459,199.71861 92.52359,203.07801 C91.40249,203.6366 90.28529,204.75771 89.72279,202.51942 C89.72279,201.96083 88.60169,201.96083 88.60169,202.51942 C83.56259,202.51942 79.08219,204.75772 74.04269,206.99992 C73.4841,206.99992 72.92159,207.55851 72.92159,208.12102 C72.92159,208.67961 73.48018,209.24212 74.04269,209.24212 C77.40209,209.24212 81.32389,209.80071 84.68369,208.12102 C85.80089,207.55852 86.92199,207.55852 88.60169,207.55852 L88.6021,207.5585 Z M41.0001,212.039 C40.44151,212.59759 39.879,212.039 39.3204,212.039 C38.1993,212.039 37.0821,211.48041 36.5196,212.59759 C35.96101,213.71869 37.6407,214.27729 38.1993,214.83589 C39.3204,215.95699 41.5587,217.07419 43.2384,217.07419 C44.9181,217.63278 46.5978,217.07419 48.2775,217.63278 C52.1994,218.19137 54.9963,217.07419 56.6759,213.71088 C54.9962,213.15229 53.8751,212.58978 52.754,213.15229 C51.0743,213.15229 49.3946,213.15229 48.2735,212.03119 C44.3516,208.10929 39.3126,208.67179 34.2735,208.67179 C33.1524,208.67179 31.4727,208.1132 30.3516,209.23038 C33.7188,209.80069 37.6407,210.92178 40.9996,212.03898 L41.0001,212.039 Z M7.9611,179.559 L8.51969,179.559 L10.19939,177.8793 C13.55879,174.5199 15.23849,170.5981 15.23849,165.5593 C15.23849,163.321 14.6799,161.6374 13.00019,160.5202 C13.00019,159.96161 12.4416,159.3991 11.32049,159.3991 C10.19939,159.95769 10.7619,160.5202 10.7619,161.0788 C10.7619,163.3171 11.32049,165.5593 10.20331,167.239 C7.39861,171.7195 8.51971,175.6413 7.9611,179.559 L7.9611,179.559 Z M60.6021,196.922 C60.6021,196.922 58.9224,196.922 60.04351,197.48059 C61.72321,199.16029 62.84431,201.40249 64.52401,202.51969 C68.44591,204.19939 72.36381,203.07828 76.28601,201.9611 C76.8446,201.9611 77.40711,201.40251 77.40711,200.2814 C77.40711,199.72281 76.28601,199.72281 75.72741,199.72281 C74.04771,199.72281 72.92661,199.72281 71.24691,199.16422 C68.44221,197.48062 64.52031,197.48062 60.60191,196.922 L60.6021,196.922 Z M28.6801,204.7618 C37.0785,205.8829 44.3601,208.6837 52.2001,206.4415 C50.5204,205.88291 49.9618,203.0821 48.2782,203.0821 C43.7977,203.0821 39.3173,202.52351 34.2782,202.52351 C32.6024,203.0782 30.3602,202.519603 28.6805,204.76181 L28.6801,204.7618 Z M195.5601,55.2418 C194.439,56.3629 193.3218,56.9215 192.2007,57.4801 C188.2788,58.03869 186.0405,60.8395 184.9195,64.1989 C184.36091,65.8786 184.9195,65.8786 186.0406,65.8786 C188.2789,65.32001 190.5211,64.7575 192.7594,63.6403 C194.443,61.9645 196.1227,57.4841 195.5602,55.2418 L195.5601,55.2418 Z M139.0011,200.2818 C136.7628,200.84039 134.5206,200.2818 132.8409,201.9615 C131.7198,203.6412 130.6026,204.1998 128.919,204.1998 C126.6807,204.75839 124.4385,205.8795 122.2002,206.4381 C120.5205,206.99669 118.8408,206.99669 117.7197,208.6764 C123.3213,210.9225 137.3217,205.3209 139.0007,200.2819 L139.0011,200.2818 Z M183.23921,61.9618 C183.23921,58.6024 182.68051,58.0399 179.8797,59.7235 C177.0789,61.4032 174.2781,62.5243 170.9188,63.0829 C168.6805,63.64149 169.7977,64.7626 170.36021,65.8837 C170.9188,67.0048 172.03991,65.8837 172.59851,65.8837 C174.83681,65.8837 177.07901,63.6454 179.31731,66.44229 C179.8759,67.00088 180.43841,66.44229 180.43841,66.44229 C182.12201,64.76259 183.23921,63.64149 183.23921,61.96179 L183.23921,61.9618 Z M121.6411,98.3598 C120.52,98.3598 119.4028,97.80121 118.8403,99.4809 C118.28171,101.1606 117.1606,102.2817 115.4809,103.4028 C114.3598,103.96139 113.2426,105.6411 114.3598,106.7622 C115.4809,107.8833 117.1606,107.8833 118.2817,106.7622 C119.9614,105.0825 121.0825,103.4028 122.2036,101.7231 C123.8794,100.0395 123.3208,98.3598 121.6411,98.3598 L121.6411,98.3598 Z M208.4421,43.4808 L208.4421,41.8011 C207.88351,41.24251 207.321,41.8011 206.7624,42.35969 C204.5241,44.03939 202.2819,45.71909 200.0436,47.96129 C199.48501,48.51988 198.3639,49.08239 198.9225,50.19959 C199.48109,51.32069 200.6022,52.43789 202.2819,51.87929 C204.5202,51.3207 208.4421,46.28159 208.4421,43.48089 L208.4421,43.4808 Z M40.4421,165.0008 C38.7624,164.44221 37.6413,165.55939 35.9616,165.55939 C34.8405,165.55939 33.1608,166.68049 33.7233,168.36019 C34.28189,170.03989 35.403,169.48129 36.5241,168.91878 C40.446,168.36019 42.6843,164.99688 46.6021,163.87968 C47.16069,163.87968 48.8404,162.75858 48.2818,161.64138 C47.72321,160.52028 46.6021,161.64138 45.481,162.19997 C43.2388,163.32107 42.1216,165.55937 40.4419,165.00077 L40.4421,165.0008 Z M60.0401,208.6808 C64.5206,210.9191 71.2391,209.23939 71.8021,205.3214 C67.8802,205.87999 63.9623,205.87999 60.0401,208.6808 Z M48.2821,148.76281 C50.5204,148.76281 52.204,146.5245 53.8837,145.962 C54.44229,145.40341 55.0048,145.40341 54.44229,144.2823 C53.8837,143.72371 53.32119,143.72371 52.76259,143.72371 C51.08289,144.2823 49.40319,144.84481 47.72349,145.96201 C47.1649,146.5206 46.04379,146.5206 46.04379,147.64171 C46.60238,148.76281 47.71959,148.76281 48.28209,148.76281 L48.2821,148.76281 Z M23.0791,165.5598 C24.7588,165.5598 26.4385,165.00121 27.5596,164.4387 C28.11819,164.4387 28.6807,163.88011 28.11819,163.3176 C28.11819,162.75901 27.5596,162.1965 26.99709,162.1965 L23.07519,162.1965 C21.95409,162.1965 20.83689,162.75509 20.83689,163.8762 C20.840796,165.0012 22.52049,165.5598 23.07909,165.5598 L23.0791,165.5598 Z M38.7631,159.9621 C39.32169,159.9621 39.8842,159.9621 40.4428,159.40351 C41.5639,158.28241 42.1225,157.16521 41.5639,156.04411 C41.00531,154.36441 39.8842,156.04411 38.7631,156.6027 C38.20451,156.6027 37.0834,157.16129 36.5248,157.16129 C36.520893,157.16129 35.3998,157.71988 35.3998,158.28239 C35.3998,159.39959 36.5209,159.39959 37.0795,159.39959 C37.642,159.9621 38.2006,159.9621 38.7631,159.9621 L38.7631,159.9621 Z M97.0011,121.8801 C99.2394,122.43869 104.2823,119.0793 104.8409,117.3996 C105.39949,116.2785 104.28231,116.2785 104.28231,115.7199 C103.72372,115.16131 103.16121,115.7199 103.16121,116.27849 C100.92291,118.52069 98.68071,119.64179 97.00101,121.88009 L97.0011,121.8801 Z M108.2001,111.2391 C108.2001,111.79769 107.64151,112.3602 108.75869,112.9188 C109.31728,112.9188 109.87979,112.9188 109.87979,111.7977 C109.87979,110.6766 111.00089,110.6766 111.55949,110.118 C112.11808,109.55941 112.11808,108.4383 111.55949,107.8797 C111.0009,106.7586 110.43839,107.8797 109.87979,107.8797 C108.20009,108.4422 108.20009,110.1219 108.20009,111.2391 L108.2001,111.2391 Z M136.2001,96.6801 C137.3212,96.6801 138.4384,96.12151 138.4384,94.4418 C138.4384,93.3207 138.4384,92.2035 136.7587,92.7621 C135.079,92.7621 134.5204,93.8832 134.5204,95.5629 C133.96181,96.6801 135.07899,96.6801 136.2001,96.6801 Z M130.0399,95.559 C129.48131,96.6801 128.9188,97.2387 127.8016,97.7973 C127.24301,98.35589 125.5633,98.9184 126.6805,99.477 C127.23909,100.5981 128.9188,99.477 129.4813,98.91841 C131.161,98.35982 131.161,97.23871 130.03989,95.559 L130.0399,95.559 Z M132.2821,214.839 C135.0829,215.39759 136.7626,213.1593 138.4423,212.0382 C138.4423,212.0382 139.00089,211.47961 138.4423,210.9171 C137.88371,210.35851 137.88371,210.9171 137.3212,210.9171 C136.2001,212.0382 134.5204,213.7179 132.2821,214.839 Z M88.0401,125.8 C85.2393,126.35859 83.5596,128.0383 83.001,130.8391 C85.8018,129.718 86.9229,128.0383 88.0401,125.8 Z M156.3601,82.12 C160.282,81.56141 160.8406,80.9989 159.7195,78.1981 C158.0398,79.3192 156.9226,80.4403 156.3601,82.12 Z M158.03979,74.8388 C160.2781,74.8388 161.3992,73.7177 163.0789,73.1591 C163.63749,72.60051 164.2,72.038 163.63749,71.4794 C163.0789,70.92081 162.51639,71.4794 161.95779,71.4794 C160.84059,72.6005 159.16089,73.7177 158.03979,74.8388 L158.03979,74.8388 Z M168.6808,72.6005 C168.6808,72.04191 168.12221,72.04191 167.5597,72.04191 C166.4386,72.04191 166.4386,73.16301 165.88,74.28021 C165.88,74.28021 165.88,74.8388 166.43859,74.8388 C167.55969,74.28021 168.6808,73.7177 168.6808,72.6005 L168.6808,72.6005 Z M206.7628,121.3195 C206.7628,120.76091 206.7628,120.1984 206.20421,120.1984 C205.08311,120.1984 204.52451,121.3195 204.52451,122.4367 C204.52451,122.99529 204.52451,123.5578 205.0831,122.99529 C205.64169,122.4406 206.7628,122.4406 206.7628,121.31949 L206.7628,121.3195 Z" id="Shape"></path>
            <path d="M528.76,64.76 C529.31859,65.8811 529.31859,66.9983 529.8811,68.1194 C532.1194,72.0413 531.5608,75.9592 529.8811,79.8814 C527.6428,86.0416 524.2795,90.5224 519.8031,94.4404 C515.3226,98.9209 510.2836,102.8388 505.8031,107.3194 C502.4437,110.1202 499.6429,113.4796 496.2836,116.2803 C494.6039,117.4014 493.4828,117.96 491.8031,117.96 C490.1234,117.96 489.0023,118.51859 487.8812,119.0811 C483.4007,121.3194 478.9203,123.5616 474.4402,125.2413 C469.9597,126.921 464.9207,128.0421 460.9992,131.9601 C460.44061,132.51869 459.3195,133.0812 458.7609,132.51869 C455.9601,131.9601 453.7218,133.07728 451.4797,133.63979 C450.3586,134.19838 448.6789,134.76089 447.5578,134.76089 C444.757,134.76089 442.5187,135.31948 440.2766,135.88199 C430.1986,138.68279 419.5576,139.24139 408.9176,141.48359 C405.5582,142.04218 402.7574,141.48359 399.3981,141.48359 C389.3201,142.04218 379.2381,142.04218 368.5971,140.36249 C363.558,139.8039 358.5191,138.12419 353.4761,138.68279 C347.8745,138.68279 342.8351,137.56169 337.7961,135.32339 C337.23751,134.7648 336.1164,134.7648 336.1164,133.64369 C335.55781,129.16319 331.0773,128.60459 328.2766,126.92489 C321.5578,124.12409 315.3976,119.08509 308.6746,115.72589 C307.5535,115.1673 306.4363,114.60479 306.4363,112.92509 C306.4363,111.80399 308.116,112.3665 308.6746,111.80399 C307.5535,108.44459 304.7527,106.76489 302.5144,104.52279 C299.7136,101.72199 296.3542,98.92119 295.7956,94.44479 C295.7956,92.76509 294.6745,91.64399 294.1159,90.52289 C292.4362,87.72209 290.7565,84.92129 288.5143,82.12449 C287.95571,81.5659 287.95571,81.00339 287.95571,79.88619 C289.07681,77.08539 288.5143,74.84709 287.95571,72.04639 C286.83461,68.12449 287.95571,65.32759 291.31511,63.64799 C291.8737,63.64799 291.8737,63.0894 292.43621,63.0894 C296.35811,60.2886 297.47531,55.8082 295.79561,51.3274 C294.67451,48.5266 294.67451,45.1672 294.67451,41.8079 C294.67451,41.24931 294.67451,41.24931 295.2331,40.6868 C298.5925,38.4485 299.155,33.968 301.3933,31.1673 C301.95189,30.0462 303.073,29.4876 303.6316,28.929 C309.2332,27.2493 314.2726,23.8899 319.3116,21.6478 C325.4718,19.4095 331.0736,16.0462 337.7916,14.3666 C345.0728,12.1283 351.7916,9.8861 359.0726,8.2064 C366.9124,6.5267 374.7526,5.9681 382.0336,3.7259 C385.9555,2.6048 389.8734,2.6048 393.7956,2.0462 C405.5576,0.9251 417.8736,-0.1921 429.6356,0.3665 C432.995,0.3665 436.9168,0.92509 440.2766,1.4876 C442.5149,2.04619 444.7571,2.04619 446.4368,1.4876 C452.597,1.4876 458.1988,2.6087 464.3588,3.1673 C470.519,3.72589 476.6788,4.847 482.2808,6.5267 C486.7613,8.2064 490.6792,10.4486 495.1598,12.1283 C498.5192,13.2494 501.32,14.9291 503.5582,17.1674 C506.359,19.4057 509.7184,20.5268 511.9566,23.3276 C512.51519,23.88619 513.0777,23.88619 514.1949,23.88619 C517.5543,22.76509 519.234,23.3276 519.234,26.68699 C519.234,28.36669 519.79259,29.48779 520.9137,30.04639 L521.47229,30.60498 C521.47229,33.96438 522.59339,37.32378 521.47229,41.24598 C520.35119,44.60538 518.67149,47.96478 516.99179,50.76548 C515.31209,53.56628 516.4332,57.48428 519.79259,58.04668 C522.03089,58.60527 524.27309,59.16778 526.51139,59.72638 C527.06998,59.72638 528.19109,60.28497 528.74969,60.84748 C529.87079,61.40607 530.98799,61.96858 530.42939,63.64828 C531.55829,65.87878 530.441108,64.76158 528.76139,64.76158 L528.76,64.76 Z M449.799,73.717 C448.6779,72.5959 448.1193,72.0373 448.1193,70.9162 C446.9982,68.6779 446.4396,65.8771 445.3185,63.635 C445.3185,63.07641 444.75991,61.9553 443.6388,62.5139 C443.08021,63.07249 442.5177,63.635 442.5177,64.1936 C442.5177,65.8733 442.5177,67.553 443.07629,69.2327 C443.63488,70.9124 443.63488,72.0335 442.5177,72.5921 C440.838,73.15069 440.838,71.471 440.2794,70.9124 C440.2794,70.9124 439.72081,70.35381 439.72081,69.7913 C439.72081,66.9905 437.48251,65.8694 435.79891,64.7522 C433.56061,63.0725 430.75981,64.7522 429.08011,65.31079 C427.40041,65.86938 427.40041,68.11159 427.95901,69.79129 C428.5176,70.91239 428.5176,72.02959 428.5176,73.15069 C429.07619,73.70928 429.07619,74.83039 428.5176,75.38899 C428.5176,75.94758 427.95901,75.94758 427.95901,75.38899 C427.40042,74.8304 426.83791,74.26789 426.83791,73.15069 C427.3965,71.47099 426.83791,69.79129 426.27932,68.11159 C425.72073,66.43189 425.15822,66.43189 424.04102,66.43189 C422.36132,66.43189 421.24022,66.99048 420.68162,68.67019 C420.68162,70.34989 420.68162,72.59209 422.91992,73.15069 C423.47851,73.15069 424.04102,73.70928 424.04102,74.27179 C424.04102,74.83038 423.48243,75.39289 422.91992,75.39289 C421.24022,75.95148 421.24022,76.51399 421.24022,78.19369 C421.24022,79.87339 421.79881,81.55309 422.36132,83.23279 C422.91991,84.35389 423.48242,84.91249 422.36132,86.03359 C421.24022,86.59218 420.12302,86.03359 419.56052,84.91249 C419.00193,83.79139 418.43942,82.11169 417.32222,81.55309 C414.52142,80.9945 415.08392,78.75229 414.52142,77.07259 C414.52142,74.27179 412.28312,70.35379 409.48232,69.79139 C406.12292,69.2328 402.76352,66.99059 399.40432,66.43199 C398.28322,66.43199 397.16602,65.8734 396.60352,65.8734 C394.36522,65.8734 393.80272,66.9945 394.36522,69.2328 C395.48632,72.5922 396.04492,75.9516 397.16602,79.3108 C395.48632,78.75221 395.48632,77.6311 394.92772,76.51 C394.36913,75.3889 394.36913,74.2717 393.80662,73.1506 C392.68552,71.4709 391.00582,70.3498 392.12692,68.1115 C392.12692,67.55291 391.56833,66.9904 391.56833,66.4318 C391.00974,65.87321 384.28713,64.7521 383.72853,65.3107 C382.04883,68.1115 379.80663,65.3107 378.12693,65.86929 C379.80663,63.63099 379.80663,63.06849 378.68552,63.06849 C375.88472,63.06849 373.08392,61.38879 370.84572,62.5099 C369.72462,63.06849 369.16602,63.06849 368.04492,61.95131 C367.48633,61.39272 366.92382,61.39272 365.80662,61.39272 C364.68552,61.95131 365.24803,62.51382 365.24803,63.63102 C365.24803,64.75212 365.80662,65.31072 365.24803,66.99042 C364.12693,64.75212 363.00973,62.50992 360.20893,63.63102 L359.65034,63.07243 C357.97064,61.95133 356.84954,61.95133 356.29094,64.19353 L356.29094,67.55293 C356.84953,71.47483 358.52924,74.83413 357.41204,78.75193 C356.85345,80.43163 356.29094,80.99023 354.61124,79.87303 C354.05265,79.31444 352.93154,78.19333 352.93154,77.07223 C352.93154,74.27143 352.37295,72.03313 351.81044,69.79103 C351.25185,67.55273 350.13074,66.43163 347.88854,66.43163 L346.20884,66.43163 C345.65025,66.99022 346.76743,67.55273 346.76743,68.11133 C347.32602,68.66992 347.88853,69.79103 346.76743,70.34963 C346.20884,70.90822 345.08773,70.90822 343.96663,70.90822 C342.84553,70.34963 342.28693,69.78712 341.72833,68.66992 C340.04863,66.43162 338.36893,64.74802 335.00953,65.31052 C332.20873,65.86911 329.40793,65.31052 327.16973,64.18942 C324.36893,63.06832 322.13063,62.50972 319.32993,63.63083 C318.20883,64.18942 316.52913,64.18942 315.40803,64.75193 C311.48613,65.31052 308.12683,66.43163 305.88853,69.79103 C305.32994,70.91213 304.76743,70.91213 304.20883,69.79103 C303.65024,69.23244 302.52913,69.23244 301.97053,69.23244 C300.84943,69.79103 301.41194,70.91214 301.41194,71.47074 C301.97053,76.50984 304.21274,80.43164 308.13074,83.23274 C310.36904,84.35384 312.05264,85.47104 313.16984,87.71324 C313.72843,88.83434 314.84954,89.39294 316.52924,89.95154 C318.20894,89.95154 319.33004,90.51013 321.00974,91.07264 C326.04884,92.75234 330.52924,95.55314 335.56874,97.23284 C347.33074,101.15474 359.64674,103.95164 371.96674,105.63124 C384.28674,107.31094 396.04474,106.18983 407.80674,105.07265 C416.20514,103.95155 425.16574,103.39295 433.56874,102.27185 C438.60784,101.71326 444.20974,101.15075 449.24874,98.91245 C451.48704,97.79135 453.72924,97.79135 455.96754,97.23275 C463.80734,94.99445 471.64754,94.99445 478.92854,92.19365 C482.85044,90.51395 486.76834,87.71315 491.80754,88.27175 C494.04584,88.83034 497.40914,86.59205 500.20594,84.91235 C503.00674,82.67405 505.24504,79.87325 508.04574,77.07255 C509.72544,75.39285 510.84654,73.71315 510.28404,70.91235 C509.72545,69.79125 510.28404,68.67405 510.28404,67.55295 C510.84263,63.63105 510.84263,63.63105 507.48324,63.07245 C506.36214,62.51386 505.80354,62.51386 504.68244,62.51386 C498.52224,63.07245 492.92044,60.27556 486.76044,60.27556 C481.72134,59.71697 477.24094,58.59586 472.20144,59.15446 C471.08034,59.15446 469.96314,59.71305 469.96314,60.83416 C469.96314,64.19356 469.96314,67.55296 471.08424,70.35366 C472.20534,73.71306 472.76394,77.63486 472.76394,81.55266 C472.76394,82.67376 472.76394,83.23236 471.08424,82.67376 C469.96314,82.11517 469.40454,81.55266 468.84594,80.99406 C467.16624,78.75576 467.16624,76.51356 465.48654,74.27526 C463.24824,71.47446 462.68574,68.11506 462.12714,64.75576 C461.56855,61.95496 459.88884,59.71666 457.64664,60.27526 C454.28724,60.83385 450.92784,61.39636 447.56864,61.95496 C445.33034,62.51355 444.76784,63.07606 445.88894,65.31436 C446.44753,65.87295 446.44753,66.43546 447.01004,66.99406 C448.11944,68.11906 450.35774,70.35736 449.79914,73.71676 L449.799,73.717 Z M366.358,32.838 C367.4791,34.5177 368.5963,35.6388 369.7174,36.7599 C370.8385,37.31849 371.3971,38.4396 371.9557,40.1193 C371.9557,41.2404 373.0768,41.799 374.194,42.3576 C375.8737,42.91619 377.5534,44.0373 379.2331,42.91619 C379.79169,42.3576 380.3542,42.91619 380.3542,43.47478 C382.5925,45.71308 385.9558,46.27558 388.7526,46.83418 C391.5534,47.39277 394.9128,47.39277 397.151,44.59588 C398.8307,42.91618 397.151,40.67398 397.70959,38.99428 L397.70959,36.75598 C397.70959,35.07628 398.26818,34.51768 399.94789,34.51768 C401.62759,34.51768 403.30729,33.95909 403.86979,36.19738 C403.86979,38.99818 405.54949,41.23648 404.42838,44.03718 C403.86979,46.27548 404.42838,46.83798 406.66668,46.83798 C411.70578,47.39657 416.18618,46.83798 421.22568,46.83798 C422.90538,46.83798 424.02648,45.71688 424.58508,44.03718 C425.14367,41.23638 424.58508,38.99808 425.14367,36.19738 C425.14367,34.51768 425.70226,33.39658 427.94447,33.39658 L429.06557,33.39658 C430.74527,32.27548 431.30387,33.39658 431.30387,34.51768 C432.42497,38.99818 434.66327,40.11928 439.14367,38.99818 C440.82337,38.43959 442.50307,38.43959 444.74527,38.43959 C448.66717,38.43959 453.14367,37.881 457.06527,37.31849 C458.74497,36.7599 459.30357,36.19739 458.74497,34.51769 C458.18638,33.39659 458.74497,32.27939 458.18638,31.15829 C458.18638,30.5997 457.62779,30.03719 458.74497,30.03719 C459.30356,30.03719 459.86607,30.03719 459.86607,30.59578 C460.42466,31.15437 459.86607,31.71688 459.86607,32.27548 C459.86607,36.75598 459.86607,36.75598 464.34657,35.63488 L464.90516,35.63488 C466.58486,35.07629 467.14346,34.51378 466.58486,32.27548 C466.02627,30.59578 464.90516,29.47468 464.90516,27.23638 C464.90516,26.11528 465.46375,25.55668 466.02626,25.55668 C466.58485,24.99809 467.70596,25.55668 467.70596,26.11527 C468.26455,27.79497 469.38566,28.91607 469.94426,30.59577 C469.94426,31.71687 470.50285,32.27547 471.62396,32.83407 C473.86226,33.39266 474.98336,34.51377 476.66306,36.19347 C477.22165,36.75206 478.34276,37.31457 479.46386,37.87317 C483.94436,38.99427 487.86226,40.67397 492.34286,41.23257 C500.18266,41.79116 508.02286,41.79116 514.18286,35.63097 C514.74145,35.07238 515.30396,34.50987 514.74145,33.39267 C511.94065,28.35357 507.46025,25.55287 502.42145,24.43177 C501.30035,24.43177 500.18315,24.43177 500.18315,23.31067 C500.74174,20.50987 498.50345,19.95127 496.82375,19.38877 C495.14405,18.83018 492.90185,18.83018 491.22215,18.26767 C490.10105,17.70908 488.98385,18.26767 488.98385,19.94737 C488.98385,21.06847 487.86275,21.06847 487.30415,20.50596 C486.18305,19.94737 485.06585,19.38486 483.94475,18.82626 C478.34315,15.46686 472.74575,13.78716 466.58575,12.10746 C462.10525,10.98636 457.06625,13.78716 453.70675,9.86916 C450.34735,10.42775 448.10515,9.31057 445.30835,8.18946 C441.94895,7.06836 438.58955,7.63087 435.23035,7.63087 C424.03135,8.18946 412.26935,8.18946 401.07035,8.75197 C396.58985,8.75197 392.10945,9.87307 387.07035,10.43167 C383.14845,10.99026 379.23055,11.55277 375.30835,12.11137 C370.82785,13.23247 366.34745,14.34967 361.86735,14.91217 C359.06655,15.47076 356.82825,15.47076 354.02755,16.59187 C352.34785,17.15046 350.10565,18.83017 348.42595,18.27157 C345.06655,18.27157 342.26575,19.39267 339.46505,21.07237 C338.34395,21.63096 336.10565,21.63096 336.66425,23.31067 C337.22284,24.43177 339.46505,23.86926 340.58615,24.43177 L345.06665,24.43177 C345.62524,24.43177 346.18775,24.43177 346.18775,24.99036 C346.18775,26.11146 345.62916,25.54895 345.06665,26.11146 L343.38695,26.11146 C339.46505,26.67005 334.98855,25.55287 331.06695,28.34976 C330.50836,28.90835 329.38725,28.90835 328.82865,28.90835 C327.14895,28.90835 324.90675,28.90835 323.22705,30.02945 C318.18795,32.83025 313.70755,35.63105 309.22705,38.42785 C305.30515,40.66615 305.30515,42.90835 309.22705,45.14665 C313.14895,47.38495 317.62545,47.38495 322.10605,47.38495 C324.34435,47.38495 327.14515,44.02555 327.14515,41.22475 C327.14515,38.98645 327.70374,36.74425 327.14515,34.50595 C326.58656,33.38485 328.82485,31.70515 329.94595,32.26765 C333.30535,33.38875 334.98505,36.74815 334.98505,40.10745 C334.98505,40.66604 334.42646,41.22855 335.54364,41.22855 C337.22334,41.22855 338.90304,41.78714 340.58274,40.66996 C342.82104,39.54886 344.50464,40.11137 346.74294,40.66996 C349.54374,41.79106 352.90314,41.22855 355.70384,41.22855 C356.82494,41.22855 357.38354,40.10745 357.38354,39.54885 C356.26244,37.31055 356.82495,35.06835 355.14524,33.38865 C354.02414,32.26755 354.58665,31.15035 354.58665,29.46675 C354.58665,27.78705 356.26635,26.10735 355.70775,23.86515 C355.14916,22.74405 355.70775,21.06435 356.82885,21.06435 C358.50855,21.06435 359.06715,22.18545 359.62965,23.86515 C359.62965,26.66595 360.75075,28.90425 361.86795,31.14635 C362.98905,33.38465 362.98905,36.18545 364.10625,38.42755 C364.66484,38.98614 365.22735,39.54865 365.22735,38.98614 C364.12185,35.63844 366.92265,35.07594 366.36015,32.83774 L366.358,32.838 Z M359.0768,117.959 C361.3151,121.3184 364.1159,123.5606 365.237,127.4785 C365.79559,129.1582 366.9167,129.1582 368.5964,129.7168 C371.3972,130.27539 374.7566,130.27539 377.5573,130.8379 C379.7956,131.39649 382.0378,130.8379 384.8385,131.39649 C387.0768,132.51759 390.4401,133.07619 393.2369,132.51759 C401.6353,130.83789 410.0379,128.59569 417.8779,126.35739 C418.43649,126.35739 419.5576,126.35739 418.999,125.23629 C418.999,124.11519 417.8779,124.6777 417.3193,124.6777 C411.7177,125.7988 405.5573,125.23629 399.9603,126.3574 C397.722,126.91599 395.4798,126.91599 393.2415,127.4785 C390.4407,127.4785 391.5618,125.7988 392.1204,125.2402 C393.2415,124.1191 394.3587,123.0019 396.6009,123.5605 C398.2806,124.6816 399.4017,124.11909 401.0814,124.11909 C405.0033,122.99799 409.4798,122.43939 410.6009,117.40029 L411.15949,116.8417 C412.83919,116.8417 415.63999,116.28311 416.76109,117.40029 C418.44079,119.63859 420.12049,118.52139 421.80019,117.95888 L424.60099,117.95888 C425.72209,117.95888 426.83929,117.95888 427.40179,119.63858 C427.96038,120.75968 426.8432,121.87688 426.28069,122.43938 C424.60099,123.56048 422.92129,124.11908 420.67909,124.67768 C420.1205,124.67768 419.55799,124.67768 419.55799,125.79878 C419.55799,126.91988 420.67909,126.35737 420.67909,126.35737 C421.80019,126.35737 422.35879,125.79878 423.47989,125.79878 C427.40179,125.24019 430.76109,122.99798 434.67889,124.11908 C437.47969,124.67767 439.15939,124.11908 441.39769,123.56049 C445.31959,121.88079 448.11649,121.32219 451.47569,122.43939 C444.75689,126.91989 436.35469,126.91989 429.63569,131.95889 C434.67479,131.95889 439.71369,131.4003 443.63569,129.72059 C449.23729,127.48229 455.39769,125.79869 461.55769,124.68149 C464.91709,124.1229 467.71789,123.56039 471.07719,121.88069 C471.63578,121.3221 472.19829,120.75959 472.19829,120.20099 C472.19829,119.07989 471.07719,119.6424 470.51859,119.6424 C467.71779,119.6424 465.47949,120.7635 462.67879,120.20099 C460.99909,119.6424 459.31939,119.6424 457.63969,120.75958 C458.76079,120.20099 459.87799,119.63848 460.44049,118.52128 C462.12019,116.28298 464.92099,116.28298 467.15929,115.72048 C470.51869,114.59938 474.44049,113.48218 477.80029,112.91968 C480.60109,112.36109 481.15969,110.11888 482.83939,108.99778 C486.76129,106.75948 490.67919,105.07588 494.03839,102.27898 C496.83919,100.04068 499.63999,98.35708 501.87819,95.56018 C500.19849,96.11877 499.07739,96.11877 497.39769,97.23988 C492.91719,99.47818 488.43679,102.27898 482.83869,101.72038 C481.71759,101.72038 480.60039,101.72038 480.03789,102.27897 C475.55739,103.95867 471.07699,105.63837 466.03789,106.75947 C460.43629,107.88057 455.39689,108.99777 449.79989,109.56027 C440.83899,110.68137 431.87789,110.68137 423.47989,114.04077 C421.80019,114.59936 420.67909,114.59936 418.99939,114.04077 C417.31969,113.48218 415.63999,113.48218 414.51889,113.48218 C407.80009,114.04077 401.07789,114.60328 394.35889,114.60328 C383.15989,115.16187 372.51889,116.28298 361.87889,112.92358 C355.16009,110.68528 347.87889,109.56418 341.15989,107.88448 C340.03879,107.88448 339.48019,107.32589 338.92159,107.88448 C338.92159,108.44307 339.48018,108.44307 339.48018,109.00558 C343.40208,111.24388 347.31998,114.60718 352.35918,114.60718 C353.48028,114.60718 355.15998,115.16577 356.28108,115.72828 C359.08188,117.96658 361.88268,118.52908 365.24198,119.08768 C366.36308,119.08768 367.48028,119.64627 368.60138,120.76738 C364.12088,118.51738 361.87868,117.39628 359.07798,117.95878 L359.0768,117.959 Z M385.9598,51.318 C385.9598,52.9977 388.1981,52.9977 387.6395,54.6774 C387.08091,56.3571 388.19809,57.4782 389.3192,58.0368 C390.4403,58.59539 390.4403,56.9157 390.9989,56.3571 C391.5575,55.7985 391.55749,54.6774 392.6786,54.6774 C393.7997,54.6774 394.3583,55.7985 394.3583,56.9157 L394.3583,58.5954 C394.3583,59.15399 394.91689,59.7165 395.4794,59.7165 C397.1591,59.7165 398.8388,60.27509 400.5185,59.15791 C401.6396,58.03681 402.7568,57.47821 402.1982,55.79851 C402.1982,54.11881 400.5185,54.11881 399.3974,54.11881 C396.038,51.318 390.999,51.318 385.9594,51.318 L385.9598,51.318 Z M373.0768,50.19691 L374.1979,50.19691 C374.75649,50.19691 375.8776,50.19691 375.8776,49.63831 C375.8776,49.07972 374.7565,49.07972 374.1979,49.07972 C372.5182,49.07972 371.3971,48.52113 370.276,47.95862 C367.4752,46.83752 365.2369,46.83752 362.4362,47.40003 C360.1979,47.95862 358.5143,47.95862 356.276,46.27893 C354.5963,44.59923 351.2369,45.15783 350.1158,47.40003 C349.55721,47.95862 349.55721,49.07973 350.67439,49.07973 C352.35409,49.07973 354.03379,49.63832 355.71349,49.63832 C358.51429,49.07973 361.87369,49.07973 364.67439,49.63832 C368.03769,49.63832 370.83849,50.19691 373.07669,50.19691 L373.0768,50.19691 Z M446.9988,47.9586 C449.7996,48.51719 450.9207,47.40001 452.6004,46.8375 C453.15899,46.8375 454.2801,46.8375 454.2801,45.7164 C454.2801,44.5953 453.72151,44.0367 452.0418,44.0367 C447.5613,44.0367 443.0809,45.1578 438.6008,46.8375 C437.4797,47.39609 435.8,47.39609 436.3625,49.0758 C436.92109,50.1969 439.1633,50.1969 439.7219,49.63439 C442.5188,47.39609 445.3196,47.39609 446.9992,47.95859 L446.9988,47.9586 Z M327.1588,107.8766 C328.2799,107.8766 328.8385,107.8766 329.3971,106.7555 C329.3971,105.6344 328.83851,104.5172 327.7174,103.9547 C324.9166,102.275 322.1158,101.7164 319.319,101.1539 C318.76041,101.1539 318.1979,101.1539 317.6393,101.71249 C317.0807,102.27108 317.6393,102.83359 318.19789,103.39219 C319.87759,106.75939 323.79949,106.75939 327.15879,107.8766 L327.1588,107.8766 Z M324.358,109.5563 C324.358,110.11489 324.358,110.11489 324.91659,110.6774 C327.71739,114.0368 332.19779,115.7165 335.55759,118.5172 C336.11618,119.07579 337.23729,119.07579 337.23729,118.5172 C337.79588,117.95861 336.6787,117.3961 336.6787,116.8375 C336.6787,116.8375 336.12011,116.27891 336.12011,115.7164 C333.31931,111.7984 329.39741,110.1187 324.358,109.5562 L324.358,109.5563 Z M482.278,52.9973 C483.9577,54.1184 485.0788,54.677 486.7585,54.677 C491.239,54.11841 495.1569,53.5559 499.6375,54.11841 C500.19609,54.11841 500.7586,54.11841 500.7586,53.55982 C500.7586,53.00123 500.7586,52.43872 500.20001,52.43872 C499.64142,51.88013 499.07891,51.88013 498.52031,51.88013 C494.59841,51.88013 490.68051,52.43872 486.20031,51.3215196 C485.07531,51.317633 483.39561,51.87623 482.27841,52.99734 L482.278,52.9973 Z M485.6374,110.6773 C483.9577,110.11871 482.8366,110.6773 481.7155,111.23589 C480.5944,111.79448 479.4772,112.35699 478.3561,112.35699 C474.9967,112.35699 472.1959,114.03669 468.8366,114.59529 C468.27801,114.59529 467.1569,115.15388 467.1569,115.71639 C467.1569,116.83749 468.278,116.27498 469.3952,116.27498 C471.0749,116.27498 472.7546,115.71639 473.8757,115.71639 C478.9187,115.71639 481.7155,112.35699 485.6377,110.67729 L485.6374,110.6773 Z M488.9968,47.3963 C484.5163,45.7166 481.157,45.158 477.2348,46.2752 C475.5551,46.83379 474.9965,47.3963 474.9965,48.5135 C474.9965,49.6346 476.6762,49.6346 477.2348,49.6346 C481.1567,49.07601 484.516,49.07601 488.9968,47.3963 L488.9968,47.3963 Z M404.4377,57.4783 C407.7972,60.8377 416.7578,58.03689 418.9968,55.24 C418.9968,55.24 419.55539,54.1189 418.9968,54.1189 C418.43821,53.56031 417.8757,54.1189 417.8757,54.1189 C413.3952,55.7986 408.9187,56.3572 404.4377,57.4783 L404.4377,57.4783 Z M352.9178,122.43931 C353.47639,122.43931 354.0389,122.43931 354.5975,121.88071 C354.5975,121.32212 354.5975,120.75961 354.03891,120.20101 C351.80061,118.52131 349.55841,118.52131 346.75771,117.96271 C346.19912,117.96271 345.63661,117.40412 345.63661,117.96271 C345.07802,118.5213 345.63661,119.08381 346.1952,119.64241 C347.8749,121.31821 350.1171,121.87681 352.9179,122.43931 L352.9178,122.43931 Z M469.9578,50.19731 C471.0789,50.19731 472.1961,50.19731 473.3172,49.0762 C473.87579,48.51761 473.87579,47.3965 473.3172,46.8379 C472.75861,45.7168 471.0789,46.27931 470.5164,46.27931 C468.8367,46.27931 467.157,46.8379 467.157,48.51761 C467.157,50.75981 469.3953,49.63871 469.9578,50.19731 L469.9578,50.19731 Z M369.7178,54.6778 L371.9561,54.6778 C372.51469,54.6778 373.0772,54.6778 373.0772,54.11921 C373.0772,53.56062 372.51861,52.99811 371.9561,52.99811 C369.1553,52.43952 365.7959,51.31841 362.9952,51.87701 C362.43661,51.87701 361.8741,51.87701 361.3155,52.4356 C361.3155,52.99419 361.87409,52.99419 362.4366,53.5567 C365.2374,54.1192 367.4796,54.6778 369.7178,54.6778 Z M449.7998,53.5567 L448.6787,52.99811 C444.7568,52.99811 441.3975,54.67781 438.0377,55.79891 C437.47911,55.79891 437.47911,56.3575 437.47911,56.3575 C437.47911,56.3575 438.0377,56.91609 438.60021,56.91609 C441.95961,56.3575 445.87751,54.67779 449.79921,53.55669 L449.7998,53.5567 Z M344.5198,50.1973 C346.1995,50.1973 347.8792,50.1973 347.8792,47.959 C347.8792,46.8379 346.7581,46.8379 346.1995,46.8379 C345.0784,46.8379 342.8401,46.8379 342.8401,48.5176 C342.28151,49.6387 343.39869,50.1973 344.5198,50.1973 L344.5198,50.1973 Z M378.6798,50.7598 C379.8009,51.8809 381.4806,51.8809 382.0392,53.5606 C382.0392,54.11919 382.59779,54.11919 383.1603,53.5606 C383.71889,53.00201 384.2814,52.4395 384.84,51.3223 C384.84,50.76371 384.28141,50.76371 383.7189,50.76371 C382.0392,50.1973 380.3595,50.759804 378.6798,50.759804 L378.6798,50.7598 Z M413.3988,63.6388 C416.1996,64.7599 417.8793,63.6388 419.559,64.19739 C420.11759,64.19739 420.6801,63.6388 420.6801,63.07629 C420.6801,62.5177 420.6801,61.95519 420.12151,62.5177 C417.87931,62.5177 415.64101,62.5177 413.3988,63.6388 L413.3988,63.6388 Z M506.9218,94.4398 C506.9218,94.99839 506.9218,96.1195 508.0429,96.1195 C509.164,96.1195 509.164,94.9984 509.164,93.8812 C509.164,93.32261 509.164,92.2015 508.0429,92.7601 C507.4804,92.7601 506.9218,92.7601 506.9218,94.4398 L506.9218,94.4398 Z M504.6796,98.9203 C502.9999,99.47889 501.8788,100.0414 500.7577,101.1586 C503.5585,101.71719 504.121,101.1586 504.6796,98.9203 Z M508.6015,88.8383 C510.8398,88.27971 513.082,88.27971 515.3203,86.6 C512.5195,86.0375 510.8398,88.2797 508.6015,88.8383 Z M347.8815,115.1583 C344.5221,112.92 343.9596,112.92 341.7213,113.4786 C343.9635,114.03719 345.6432,114.5997 347.8815,115.1583 Z M346.2018,55.7993 C344.5221,53.561 343.401,54.1196 341.7213,55.24071 C342.8424,55.236803 344.5221,55.7993 346.2018,55.7993 Z M349.5612,115.7173 C350.6823,116.8384 352.362,117.397 353.4831,117.9556 C354.04169,117.9556 354.6042,118.51419 354.6042,117.9556 C354.6042,117.39701 354.6042,116.8345 354.04561,116.8345 C352.36201,116.27981 350.68231,115.7173 349.5612,115.7173 L349.5612,115.7173 Z" id="Shape"></path>
            <path d="M145.72,128.6 C135.079,126.9203 125.56,126.3617 114.919,126.3617 C119.962,123.557 141.802,125.2367 145.72,128.6 Z" id="Path"></path>
            <path d="M149.64,137.56 C149.08141,139.7983 146.8392,139.7983 145.1595,140.9194 C142.9212,142.0405 140.679,143.1577 138.4407,144.2788 C136.2024,144.83739 134.5188,144.83739 133.9602,142.0405 C140.1204,142.603 144.0382,138.1225 149.6402,137.56 L149.64,137.56 Z" id="Path"></path>
            <path d="M171.48,105.64 C170.92141,106.7611 170.3589,106.7611 169.8003,106.19859 C166.9995,105.64 164.7612,104.51889 161.9605,104.51889 L156.9214,104.51889 C156.36281,104.51889 155.2417,105.07748 155.2417,103.9603 C155.2417,102.8392 155.80029,102.8392 156.3628,102.8392 C159.1636,101.7181 161.4019,102.28061 164.2026,102.8392 C166.4409,103.39779 168.1245,103.9603 170.3628,105.0775 C170.358894,105.0775 170.92139,105.64 171.48,105.64 L171.48,105.64 Z" id="Path"></path>
            <path d="M103.72,184.04001 C103.16141,184.04001 103.16141,184.04001 103.16141,183.48141 C103.16141,182.92282 103.16141,182.36031 103.72,182.36031 C105.9583,180.12201 109.3216,178.43841 112.1184,176.75871 L112.67699,176.75871 C113.23558,176.75871 112.67699,177.3173 112.67699,177.87981 C109.88009,180.12201 107.07929,182.36031 103.71999,184.04001 C104.28249,184.04001 104.28249,184.04001 103.71999,184.04001 L103.72,184.04001 Z" id="Path"></path>
            <path d="M208.44,77.64 C207.8775,77.64 207.8775,78.19859 208.44,77.64 C206.2017,78.7611 205.0806,79.8783 203.4009,80.9994 C202.84231,81.55799 202.84231,80.9994 202.2798,80.44081 C201.72121,79.31971 201.1587,79.31971 200.0415,79.31971 C199.48291,79.31971 198.9204,79.31971 198.9204,78.76112 C198.9204,78.20253 198.9204,77.64002 199.47899,78.20253 C201.71729,78.20253 203.95949,77.64394 206.19779,77.08143 C207.31889,76.51893 207.87749,76.51893 208.44,77.64002 L208.44,77.64 Z" id="Path"></path>
            <path d="M74.6,173.96 C79.0805,173.40141 82.9984,174.51859 86.92,175.6397 C82.4395,176.19829 78.5177,175.6397 74.6,173.96 Z" id="Path"></path>
            <path d="M70.68001,188.52 C68.4417,189.07859 66.1995,188.52 64.5198,187.96141 C63.96121,187.96141 63.3987,187.96141 63.96121,186.84031 C63.96121,186.28172 64.5198,186.28172 65.08231,186.28172 C66.76201,186.28172 68.44171,187.96142 70.68001,188.52002 L70.68001,188.52 Z" id="Path"></path>
            <path d="M72.92001,173.4 C70.6817,174.5211 68.9981,173.95859 66.7598,173.95859 C66.20121,173.95859 66.20121,173.95859 66.20121,173.4 C66.20121,172.84141 66.7598,172.2789 67.32231,172.84141 C68.99811,172.84141 70.67781,173.4 72.92001,173.4 L72.92001,173.4 Z" id="Path"></path>
            <path d="M58.92,176.2 C60.5997,175.0789 61.7208,173.9617 63.9591,175.64141 C62.838,176.2 60.5997,176.2 58.92,176.2 Z" id="Path"></path>
            <path d="M161.96,116.28 C160.2803,116.28 158.6006,116.83859 156.9209,115.72141 C158.6006,115.15891 160.2803,115.15891 161.96,116.28 Z" id="Path"></path>
            <path d="M115.48,153.8 C117.1597,152.1203 118.8394,153.8 121.0816,153.8 C119.398,155.4797 117.7183,153.8 115.48,153.8 Z" id="Path"></path>
            <path d="M134.52,41.79999 C133.96141,44.6008 130.5981,45.1594 128.3598,45.7219 C123.3207,47.4016 119.3989,50.2024 114.9188,52.4407 C114.36021,52.4407 113.7977,52.99929 113.2391,52.4407 C114.9188,50.761 117.161,49.6399 119.3993,47.9602 C119.95789,47.40161 121.079,46.8391 120.5204,46.2805 C119.96181,45.72191 119.3993,45.72191 118.2821,46.2805 C117.161,47.4016 116.0438,46.83909 114.3602,46.83909 C117.161,45.71799 119.3993,44.03829 122.2,44.03829 C127.2391,44.60079 130.6023,42.92109 134.52,41.79999 L134.52,41.79999 Z" id="Path"></path>
            <path d="M77.4,118.52 C74.5992,117.96141 72.3609,118.52 70.1188,116.8403 C68.4391,115.1606 66.1969,114.602 63.9586,114.0395 C63.40001,114.0395 62.2789,114.0395 62.8375,112.9184 C62.8375,112.35981 63.9586,111.2387 65.0758,111.7973 C67.8766,112.9184 70.6774,114.0356 72.9156,115.1567 C74.6031,116.2817 75.7203,116.8403 77.4,118.52 L77.4,118.52 Z" id="Path"></path>
            <path d="M94.2,105.64 C89.1609,99.4798 84.6805,93.878 79.641,87.718 C81.8793,88.2805 93.641,102.839 94.2,105.64 Z" id="Path"></path>
            <path d="M42.12,121.88 C41.56141,120.2003 40.4403,118.5206 40.9989,116.2784 C41.55749,114.0401 39.8778,112.919 37.6395,113.4776 C39.3192,110.6768 40.4403,110.6768 42.12,112.3565 C43.2411,113.4776 43.7997,112.3565 45.4794,112.91509 C43.2372,115.71979 41.5575,118.52059 42.12,121.87989 L42.12,121.88 Z" id="Path"></path>
            <path d="M156.92,30.04 C159.1583,28.3603 160.8419,27.8017 163.6388,28.9189 C164.19739,28.9189 164.19739,29.47749 164.7599,29.47749 C164.7599,30.03608 164.20131,30.03608 164.20131,30.59859 C161.39661,31.16109 159.15831,32.28219 156.92011,30.04 L156.92,30.04 Z" id="Path"></path>
            <path d="M116.04,69.24 C120.5205,71.4783 125.0009,72.5994 127.802,77.0798 C126.6809,75.9587 125.0012,75.4001 123.8801,74.279 C121.6418,73.1579 119.9582,71.4782 117.7199,70.9196 C116.6027,71.4821 116.0402,70.923506 116.0402,69.2399 L116.04,69.24 Z" id="Path"></path>
            <path d="M134.52,41.8 C137.3208,41.8 140.1216,41.24141 142.3598,40.1203 C142.91839,40.1203 143.4809,39.56171 144.0395,40.67889 C144.0395,41.23748 143.48091,41.79999 142.9184,41.79999 C140.6801,41.79999 139.559,42.35858 138.4379,44.60079 C137.87931,45.72189 136.7582,46.83909 136.1996,44.60079 C135.64101,42.92109 135.0785,42.35859 134.5199,41.79999 L134.52,41.8 Z" id="Path"></path>
            <path d="M106.52,93.32 C104.8403,94.4411 103.7192,93.32 103.1606,92.76141 C100.9223,91.08171 99.2387,89.40201 97.0004,87.72231 C96.44181,87.72231 96.44181,87.16372 96.44181,86.60121 C97.0004,86.04262 97.0004,86.60121 97.56291,86.60121 C100.35981,89.39811 103.16061,91.64031 106.52,93.32001 L106.52,93.32 Z" id="Path"></path>
            <path d="M99.8,55.8 C102.6008,53.5617 105.4016,51.3195 108.7609,50.1984 C106.5187,52.9992 103.1593,54.6789 99.8,55.8 Z" id="Path"></path>
            <path d="M146.28,66.44 C144.0417,65.3189 141.7995,64.2017 138.9988,62.5181 C141.2371,61.95951 144.0379,63.07669 146.28,66.44 Z" id="Path"></path>
            <path d="M154.12,52.44 C151.8817,51.3189 150.1981,50.2017 149.0809,47.9595 C151.3192,47.9595 152.9989,49.0767 154.12,52.44 Z" id="Path"></path>
            <path d="M58.92,125.8 C56.6817,124.6789 56.1192,122.9992 55.5606,121.3195 L55.5606,120.1984 C55.5606,120.1984 56.11919,119.63981 56.6817,120.1984 C57.23639,121.8781 58.92,123.5578 58.92,125.8 L58.92,125.8 Z" id="Path"></path>
            <path d="M58.36,100.6 C57.80141,101.7211 56.6803,102.2797 55.0006,102.8383 C54.44201,102.8383 54.44201,102.27971 54.44201,102.27971 C55.0006,101.15861 56.12171,100.04141 57.80141,100.04141 C58.36,99.47891 58.36,100.037503 58.36,100.6 Z" id="Path"></path>
            <path d="M150.2,184.6 C149.0789,184.6 147.3992,184.6 147.3992,183.4789 C147.3992,181.7992 149.0789,182.3578 149.6375,181.7992 L150.7586,181.7992 C151.8797,181.7992 152.4383,181.7992 152.9969,182.9203 C152.9969,184.0414 152.43831,184.6 151.8758,184.6 C151.32111,184.0375 150.2,184.0375 150.2,184.6 Z" id="Path"></path>
            <path d="M375.88,72.6 C379.8019,69.7992 384.2784,69.7992 388.2,69.2406 C388.75859,69.2406 389.3211,69.2406 389.3211,69.79919 C389.3211,70.35778 389.3211,70.35778 388.76251,70.35778 C384.84061,70.35778 381.48131,73.71718 377.00051,72.59608 C377.00051,72.599986 376.44192,72.599986 375.87941,72.599986 L375.88,72.6 Z" id="Path"></path>
            <path d="M332.76,68.12 C336.1194,69.7997 336.1194,73.7216 337.2405,77.0809 C334.9983,74.2801 333.3186,71.4793 332.76,68.12 Z" id="Path"></path>
            <path d="M482.27998,63.64 C482.27998,63.08141 482.27998,62.5189 482.83859,62.5189 C483.39718,62.5189 483.39718,63.07749 483.39718,63.64 C483.95577,66.4408 484.51828,68.6791 486.75658,70.3588 C486.75658,70.3588 487.87768,72.0385 486.75658,72.5971 C485.63548,73.15569 485.07688,72.03851 485.07688,71.476 C484.51829,68.6791 483.39718,65.8783 482.27998,63.6401 L482.27998,63.64 Z" id="Path"></path>
            <path d="M382.6,75.4 C383.15859,75.4 385.4008,75.4 385.4008,76.5211 C385.4008,78.2008 383.1625,76.5211 382.0414,77.07969 L381.48281,77.07969 C380.92422,77.07969 379.80311,77.07969 379.80311,75.95859 C379.80311,74.83749 380.92421,75.4 381.48281,75.4 L382.60001,75.4 L382.6,75.4 Z" id="Path"></path>
            <path d="M376.44,98.92 C378.1197,98.36141 380.3619,98.36141 382.0416,98.36141 C382.60019,98.36141 383.1627,98.36141 383.1627,98.92 C383.1627,99.47859 382.60411,99.47859 382.0416,99.47859 C380.358,99.47859 378.6783,99.47859 376.44,98.92 Z" id="Path"></path>
            <path d="M321.56,83.24 C323.2397,82.68141 324.9194,82.68141 326.5991,83.24 C324.9233,83.24 323.2397,84.3611 321.56,83.24 Z" id="Path"></path>
            <path d="M342.84,91.64 C345.0783,90.5189 346.7619,91.08141 348.4416,91.08141 C346.7619,92.19861 345.0783,92.19861 342.84,91.64 Z" id="Path"></path>
            <path d="M387.64,19.4 C389.8783,18.2789 391.5619,18.84141 393.2416,18.84141 C399.4018,18.28282 406.1206,18.28282 412.2806,18.28282 L412.83919,18.28282 C413.39778,18.28282 414.51889,17.72423 414.51889,18.84141 C414.51889,19.96251 413.39779,19.4 412.83919,19.4 L402.76119,19.4 C398.83929,19.95859 394.36279,18.84141 390.44119,19.95859 C389.87869,20.52109 389.32009,20.52109 387.64039,19.4 L387.64,19.4 Z" id="Path"></path>
            <path d="M490.12,25.56 C488.9989,25.00141 486.7606,26.11859 486.7606,24.4389 C486.7606,23.3178 488.9989,23.3178 490.12,22.7592 L493.4794,22.7592 C494.03799,22.7592 494.6005,22.7592 495.1591,23.8803 C495.1591,25.0014 494.60051,25.0014 494.038,25.0014 C492.3583,25.56 491.2372,25.56 490.12,25.56 L490.12,25.56 Z" id="Path"></path>
            <path d="M399.4,26.68 C403.8805,25.5589 407.7984,27.8011 412.279,27.8011 C407.8024,28.35969 403.8806,28.35969 399.4,26.68 Z" id="Path"></path>
            <path d="M440.28,32.27998 L440.28,32.83859 C440.83859,33.95969 441.4011,35.07689 440.28,36.19799 C440.28,36.75658 439.72141,36.75658 439.1589,36.75658 C438.0378,35.63548 438.0378,34.51828 438.60031,33.39718 C439.1589,32.83859 439.1589,32.83859 440.28001,32.27998 L440.28,32.27998 Z" id="Path"></path>
            <path d="M413.96,37.32 C412.8389,35.6403 412.2803,34.5192 412.2803,33.3981 C412.2803,32.83951 411.72171,32.277 412.83889,31.7184 C413.39748,31.7184 413.96,32.27699 413.96,32.8395 L413.96,37.32 L413.96,37.32 Z" id="Path"></path>
            <path d="M470.52,19.4 C469.96141,19.4 468.2817,19.95859 468.8403,18.84141 C468.8403,17.72031 470.52,17.72031 471.0786,17.72031 C471.6372,17.72031 472.75831,17.16172 472.75831,18.2789 C472.762207,19.9625 471.6411,19.4 470.52,19.4 Z" id="Path"></path>
            <path d="M380.92,19.4 C379.2403,21.0797 378.1192,21.0797 376.4395,19.95859 C378.1192,19.4 379.2364,19.4 380.92,19.4 Z" id="Path"></path>
            <path d="M474.44,107.88 C473.3189,107.88 472.7603,109.5597 471.6392,109.5597 C471.08061,109.5597 469.9595,110.11829 469.9595,109.00111 C469.9595,108.44252 470.51809,108.44252 471.6392,108.44252 C472.19779,107.88002 473.3189,108.44252 474.44,107.88002 L474.44,107.88 Z" id="Path"></path>
        </g>
    </g>
</svg>